<svg width="27" height="39" viewBox="0 0 27 39" fill="none" xmlns="http://www.w3.org/2000/svg">
<path d="M8.125 19.5C8.125 18.7872 8.40815 18.1037 8.91215 17.5997C9.41615 17.0956 10.0997 16.8125 10.8125 16.8125H16.1875C16.9003 16.8125 17.5838 17.0956 18.0878 17.5997C18.5919 18.1037 18.875 18.7872 18.875 19.5H8.125ZM13.5 0.6875C12.0745 0.6875 10.7073 1.25379 9.6993 2.2618C8.69129 3.26981 8.125 4.63696 8.125 6.0625V7.1805C5.72826 8.2269 3.68887 9.9498 2.25677 12.138C0.824677 14.3263 0.0620977 16.8848 0.0625002 19.5V24.875H26.9375V19.5C26.9375 13.9906 23.6211 9.25391 18.875 7.1805V6.0625C18.875 4.63696 18.3087 3.26981 17.3007 2.2618C16.2927 1.25379 14.9255 0.6875 13.5 0.6875ZM13.5 6.0625C12.5795 6.0625 11.6806 6.15522 10.8125 6.33125V6.0625C10.8125 5.34973 11.0956 4.66615 11.5997 4.16215C12.1037 3.65815 12.7872 3.375 13.5 3.375C14.2128 3.375 14.8963 3.65815 15.4003 4.16215C15.9044 4.66615 16.1875 5.34973 16.1875 6.0625V6.33125C15.3194 6.15522 14.4205 6.0625 13.5 6.0625ZM10.8125 14.125H16.1875C17.613 14.125 18.9802 14.6913 19.9882 15.6993C20.9962 16.7073 21.5625 18.0745 21.5625 19.5C21.5625 20.2128 21.2794 20.8963 20.7753 21.4003C20.2713 21.9044 19.5878 22.1875 18.875 22.1875H8.125C7.41223 22.1875 6.72865 21.9044 6.22465 21.4003C5.72065 20.8963 5.4375 20.2128 5.4375 19.5C5.4375 18.0745 6.00379 16.7073 7.0118 15.6993C8.01981 14.6913 9.38696 14.125 10.8125 14.125ZM8.125 31.5938V27.5625H0.0625002V31.5938C0.0625002 33.3757 0.770366 35.0846 2.03038 36.3446C3.29039 37.6046 4.99933 38.3125 6.78125 38.3125H20.2188C22.0007 38.3125 23.7096 37.6046 24.9696 36.3446C26.2296 35.0846 26.9375 33.3757 26.9375 31.5938V27.5625H10.8125V31.5938C10.8125 31.9501 10.6709 32.2919 10.4189 32.5439C10.1669 32.7959 9.82513 32.9375 9.46875 32.9375C9.11237 32.9375 8.77058 32.7959 8.51858 32.5439C8.26657 32.2919 8.125 31.9501 8.125 31.5938Z" fill="white"/>
</svg>
