<svg width="35" height="33" viewBox="0 0 35 33" fill="none" xmlns="http://www.w3.org/2000/svg">
<path d="M23.6936 0C21.3395 0 19.2852 1.22668 18.3752 3.55698C20.2855 5.15021 21.6079 7.61549 21.6079 10.9581C21.6079 14.527 19.9425 17.7889 18.2116 19.8902C20.969 20.9449 25.2844 23.0582 26.5178 26.3002C30.8621 26.0567 34.7402 25.1728 34.7402 22.6612V21.8341C34.7402 19.5316 30.7678 17.2781 27.2536 16.0858C27.0939 16.0329 26.0884 15.7868 26.7221 13.8111C28.3718 12.0697 29.5043 9.25106 29.5043 6.49334C29.5043 2.24429 26.891 0 23.6923 0H23.6936ZM12.4847 4.09423C9.0805 4.09423 6.14242 6.44306 6.14242 10.9581C6.14242 13.909 7.53028 16.9208 9.29261 18.7734C9.97999 20.6247 8.73222 21.9427 8.47429 22.0419C4.91168 23.3599 0.740234 25.7405 0.740234 28.1197V29.0302C0.740234 32.2709 6.85599 33 12.524 33C18.1985 33 24.2671 32.2709 24.2671 29.0302V28.1197C24.2671 25.669 20.0669 23.3096 16.3288 22.0406C16.1586 21.9837 15.0837 20.8324 15.7566 18.7324H15.7161C17.4705 16.8798 18.9893 13.8971 18.9893 10.9581C18.9893 6.44306 15.885 4.09423 12.4821 4.09423H12.4847Z" fill="white"/>
</svg>
