<svg width="37" height="37" viewBox="0 0 37 37" fill="none" xmlns="http://www.w3.org/2000/svg">
<path d="M2.63926 13.089C1.04942 14.6788 0.944637 17.198 2.32202 18.9114V19.8921H9.13448V18.9114C10.5119 17.198 10.4071 14.6788 8.81724 13.089L6.81259 11.0843V9.1339H8.0505C8.64886 9.1339 9.13448 8.64827 9.13448 8.04991C9.13448 7.45156 8.64886 6.96593 8.0505 6.96593H6.81259V5.72802C6.81259 5.12894 6.32697 4.64404 5.72861 4.64404C5.12953 4.64404 4.64463 5.12894 4.64463 5.72802V6.96593H3.406C2.80764 6.96593 2.32202 7.45156 2.32202 8.04991C2.32202 8.64827 2.80764 9.1339 3.406 9.1339H4.64463V11.0843L2.63926 13.089Z" fill="white"/>
<path d="M13.9327 19.8925H23.0671V17.76C25.0862 15.4012 24.9814 11.8378 22.7498 9.60697L19.5839 6.4403V4.48985H20.8218C21.4209 4.48985 21.9058 4.00495 21.9058 3.40587C21.9058 2.80751 21.4209 2.32189 20.8218 2.32189H19.5839V1.08398C19.5839 0.485624 19.0982 0 18.4999 0C17.9015 0 17.4159 0.485624 17.4159 1.08398V2.32189H16.178C15.5789 2.32189 15.094 2.80751 15.094 3.40587C15.094 4.00495 15.5789 4.48985 16.178 4.48985H17.4159V6.4403L14.25 9.60697C12.0184 11.8378 11.9136 15.4012 13.9327 17.76V19.8925Z" fill="white"/>
<path d="M28.1826 13.089C26.5935 14.6788 26.488 17.198 27.8661 18.9114V19.8921H34.6778V18.9114C36.0559 17.198 35.9504 14.6788 34.3613 13.089L32.3559 11.0843V9.1339H33.5938C34.1929 9.1339 34.6778 8.64827 34.6778 8.04991C34.6778 7.45156 34.1929 6.96593 33.5938 6.96593H32.3559V5.72802C32.3559 5.12894 31.8703 4.64404 31.272 4.64404C30.6729 4.64404 30.188 5.12894 30.188 5.72802V6.96593H28.9501C28.351 6.96593 27.8661 7.45156 27.8661 8.04991C27.8661 8.64827 28.351 9.1339 28.9501 9.1339H30.188V11.0843L28.1826 13.089Z" fill="white"/>
<path d="M35.9159 22.0601H1.08398C0.485335 22.0601 0 22.5454 0 23.144V35.9157C0 36.5144 0.485335 36.9997 1.08398 36.9997H13.9328V31.2714C13.9328 28.7452 15.9774 26.7043 18.5 26.7043C21.0262 26.7043 23.0671 28.7489 23.0671 31.2714V36.9997H35.9159C36.5146 36.9997 36.9999 36.5144 36.9999 35.9157V23.144C36.9999 22.5453 36.5146 22.0601 35.9159 22.0601ZM6.81225 30.1104C6.81225 30.7091 6.32691 31.1944 5.72827 31.1944C5.12962 31.1944 4.64428 30.7091 4.64428 30.1104V28.9493C4.64428 28.3507 5.12962 27.8654 5.72827 27.8654C6.32691 27.8654 6.81225 28.3507 6.81225 28.9493V30.1104ZM11.4565 30.1104C11.4565 30.7091 10.9711 31.1944 10.3725 31.1944C9.77383 31.1944 9.2885 30.7091 9.2885 30.1104V28.9493C9.2885 28.3507 9.77383 27.8654 10.3725 27.8654C10.9711 27.8654 11.4565 28.3507 11.4565 28.9493V30.1104ZM27.7114 30.1104C27.7114 30.7091 27.2261 31.1944 26.6274 31.1944C26.0288 31.1944 25.5435 30.7091 25.5435 30.1104V28.9493C25.5435 28.3507 26.0288 27.8654 26.6274 27.8654C27.2261 27.8654 27.7114 28.3507 27.7114 28.9493V30.1104ZM32.3556 30.1104C32.3556 30.7091 31.8703 31.1944 31.2716 31.1944C30.673 31.1944 30.1877 30.7091 30.1877 30.1104V28.9493C30.1877 28.3507 30.673 27.8654 31.2716 27.8654C31.8703 27.8654 32.3556 28.3507 32.3556 28.9493V30.1104Z" fill="white"/>
<path d="M18.4998 28.8726C17.1732 28.8726 16.1006 29.9456 16.1006 31.2718V37H20.899V31.2718C20.899 29.9451 19.8258 28.8726 18.4998 28.8726Z" fill="white"/>
</svg>
