<svg width="37" height="42" viewBox="0 0 37 42" fill="none" xmlns="http://www.w3.org/2000/svg">
<path d="M35.6612 33.7559C35.3036 33.9473 34.8772 34.0566 34.3821 34.084L34.3409 34.125H23.7787V39.375C23.7787 40.0859 23.5243 40.7012 23.0154 41.2207C22.5066 41.7402 21.8808 42 21.1381 42H15.857C15.1419 42 14.523 41.7402 14.0004 41.2207C13.4778 40.7012 13.2165 40.0859 13.2165 39.375V34.125H2.6543C2.6543 34.0977 2.64055 34.084 2.61304 34.084C2.11794 34.0566 1.6916 33.9473 1.33403 33.7559C0.701396 33.4004 0.28881 32.8809 0.09627 32.1973C-0.09627 31.5137 0 30.8574 0.38508 30.2285L6.53261 21H5.29485V20.918C4.77224 20.9453 4.33215 20.8496 3.97458 20.6309C3.34194 20.2754 2.92936 19.7559 2.73682 19.0723C2.54428 18.3887 2.64055 17.7324 3.02563 17.1035L16.2284 1.3125C16.2284 1.28516 16.2834 1.2168 16.3934 1.10742L16.6203 0.881836L16.8473 0.676758L17.1154 0.47168L17.4042 0.287109L17.7343 0.123047L18.085 0.0410156L18.4976 0L18.9102 0.0410156L19.2609 0.123047L19.5909 0.287109L19.8798 0.47168L20.1479 0.676758L20.3749 0.881836L20.6018 1.10742L20.8081 1.3125L34.0108 17.1035C34.3684 17.7324 34.4509 18.3887 34.2584 19.0723C34.0658 19.7559 33.6532 20.2754 33.0206 20.6309C32.663 20.8496 32.2229 20.9453 31.7003 20.918V21H30.4626L36.6514 30.2285C37.0089 30.8574 37.0915 31.5137 36.8989 32.1973C36.7064 32.8809 36.2938 33.4004 35.6612 33.7559Z" fill="white"/>
</svg>
