<svg width="48" height="47" viewBox="0 0 48 47" fill="none" xmlns="http://www.w3.org/2000/svg">
<g filter="url(#filter0_d)">
<path d="M23.9954 0C13.0617 0 4.19824 8.73044 4.19824 19.5C4.19824 30.2696 13.0617 39 23.9954 39C34.9291 39 43.7926 30.2696 43.7926 19.5C43.7926 8.73044 34.9291 0 23.9954 0ZM23.9954 6.60553C29.4458 6.60553 33.865 10.9585 33.865 16.327C33.865 17.9532 33.4126 20.0999 32.4827 21.3138L23.9954 32.3945L15.5082 21.3139C14.4843 19.9774 14.1258 18.1224 14.1258 16.327C14.1258 10.9585 18.5451 6.60553 23.9954 6.60553ZM23.9954 12.2375C21.7022 12.2375 19.8436 14.0681 19.8436 16.327C19.8436 18.5858 21.7022 20.4164 23.9954 20.4164C26.2887 20.4164 28.1472 18.5858 28.1472 16.327C28.1472 14.0681 26.2887 12.2375 23.9954 12.2375Z" fill="white"/>
</g>
<defs>
<filter id="filter0_d" x="0.198242" y="0" width="47.5944" height="47" filterUnits="userSpaceOnUse" color-interpolation-filters="sRGB">
<feFlood flood-opacity="0" result="BackgroundImageFix"/>
<feColorMatrix in="SourceAlpha" type="matrix" values="0 0 0 0 0 0 0 0 0 0 0 0 0 0 0 0 0 0 127 0"/>
<feOffset dy="4"/>
<feGaussianBlur stdDeviation="2"/>
<feColorMatrix type="matrix" values="0 0 0 0 0 0 0 0 0 0 0 0 0 0 0 0 0 0 0.17 0"/>
<feBlend mode="normal" in2="BackgroundImageFix" result="effect1_dropShadow"/>
<feBlend mode="normal" in="SourceGraphic" in2="effect1_dropShadow" result="shape"/>
</filter>
</defs>
</svg>
