<svg width="35" height="34" viewBox="0 0 35 34" fill="none" xmlns="http://www.w3.org/2000/svg">
<g filter="url(#filter0_d)">
<path d="M17.5031 0C19.2532 0 20.9317 0.684819 22.1693 1.90381C23.4069 3.12279 24.1021 4.77609 24.1021 6.5C24.1021 8.22391 23.4069 9.87721 22.1693 11.0962C20.9317 12.3152 19.2532 13 17.5031 13C15.7529 13 14.0744 12.3152 12.8368 11.0962C11.5993 9.87721 10.904 8.22391 10.904 6.5C10.904 4.77609 11.5993 3.12279 12.8368 1.90381C14.0744 0.684819 15.7529 0 17.5031 0ZM17.5031 16.25C24.795 16.25 30.7012 19.1588 30.7012 22.75V26H4.30493V22.75C4.30493 19.1588 10.2111 16.25 17.5031 16.25Z" fill="white"/>
</g>
<defs>
<filter id="filter0_d" x="0.304932" y="0" width="34.3963" height="34" filterUnits="userSpaceOnUse" color-interpolation-filters="sRGB">
<feFlood flood-opacity="0" result="BackgroundImageFix"/>
<feColorMatrix in="SourceAlpha" type="matrix" values="0 0 0 0 0 0 0 0 0 0 0 0 0 0 0 0 0 0 127 0"/>
<feOffset dy="4"/>
<feGaussianBlur stdDeviation="2"/>
<feColorMatrix type="matrix" values="0 0 0 0 0 0 0 0 0 0 0 0 0 0 0 0 0 0 0.17 0"/>
<feBlend mode="normal" in2="BackgroundImageFix" result="effect1_dropShadow"/>
<feBlend mode="normal" in="SourceGraphic" in2="effect1_dropShadow" result="shape"/>
</filter>
</defs>
</svg>
