<svg width="34" height="41" viewBox="0 0 34 41" fill="none" xmlns="http://www.w3.org/2000/svg">
<path fill-rule="evenodd" clip-rule="evenodd" d="M4.13238 16.1925C4.13238 9.28232 9.66151 4.04811 16.5295 4.04811C23.3975 4.04811 28.9267 9.28232 28.9267 16.1925C28.9267 22.2282 25.6889 27.3248 22.2363 31.0288C20.5088 32.8712 18.5969 34.5393 16.5295 36.008C14.4621 34.5393 12.5503 32.8712 10.8227 31.0288C7.3701 27.3248 4.13238 22.2262 4.13238 16.1925ZM15.4427 40.1775L16.5295 38.4571L15.4448 40.1775C15.7708 40.3746 16.1464 40.4789 16.5295 40.4789C16.9126 40.4789 17.2882 40.3746 17.6143 40.1775L16.5295 38.4571L17.6163 40.1775H17.6184L17.6225 40.1755L17.6349 40.1674L17.6763 40.1411C17.8937 40.007 18.108 39.868 18.3188 39.7241C18.7445 39.4387 19.3437 39.0198 20.0565 38.4773C21.9317 37.0504 23.6811 35.4715 25.286 33.7572C29.0651 29.7071 33.0591 23.6713 33.0591 16.1925C33.0591 7.00526 25.6373 0 16.5295 0C7.42176 0 0 7.00526 0 16.1925C0 23.6713 3.99395 29.7071 7.77301 33.7572C9.37729 35.4714 11.1259 37.0504 13.0005 38.4773C13.7273 39.0297 14.4751 39.5549 15.2423 40.052C15.3022 40.0925 15.3497 40.1209 15.3828 40.1411L15.4241 40.1674L15.4365 40.1755H15.4406V40.1775H15.4427ZM12.3971 16.1925C12.3971 15.1188 12.8325 14.0892 13.6075 13.33C14.3825 12.5708 15.4335 12.1443 16.5295 12.1443C17.6255 12.1443 18.6766 12.5708 19.4516 13.33C20.2265 14.0892 20.6619 15.1188 20.6619 16.1925C20.6619 17.2661 20.2265 18.2957 19.4516 19.0549C18.6766 19.8141 17.6255 20.2406 16.5295 20.2406C15.4335 20.2406 14.3825 19.8141 13.6075 19.0549C12.8325 18.2957 12.3971 17.2661 12.3971 16.1925ZM16.5295 8.09623C14.3376 8.09623 12.2354 8.94922 10.6855 10.4676C9.13551 11.9859 8.26476 14.0452 8.26476 16.1925C8.26476 18.3397 9.13551 20.399 10.6855 21.9174C12.2354 23.4357 14.3376 24.2887 16.5295 24.2887C18.7215 24.2887 20.8237 23.4357 22.3736 21.9174C23.9235 20.399 24.7943 18.3397 24.7943 16.1925C24.7943 14.0452 23.9235 11.9859 22.3736 10.4676C20.8237 8.94922 18.7215 8.09623 16.5295 8.09623Z" fill="#4565D7"/>
</svg>
